<svg width="16" height="16" viewBox="0 0 16 16" xmlns="http://www.w3.org/2000/svg">
  <!-- Ultra-simplified version for 16x16 -->
  <!-- Pokeball top half (red) -->
  <path d="M 8 1 A 7 7 0 0 1 15 8 L 1 8 A 7 7 0 0 1 8 1 Z" fill="#e74c3c"/>
  
  <!-- Pokeball bottom half (white) -->
  <path d="M 8 15 A 7 7 0 0 1 1 8 L 15 8 A 7 7 0 0 1 8 15 Z" fill="#ffffff"/>
  
  <!-- Center band -->
  <rect x="1" y="7" width="14" height="2" fill="#2c3e50"/>
  
  <!-- Center button -->
  <circle cx="8" cy="8" r="2" fill="#ecf0f1"/>
  <circle cx="8" cy="8" r="1.2" fill="#34495e"/>
  
  <!-- Key sparkles -->
  <g fill="#f1c40f">
    <circle cx="4" cy="4" r="0.5"/>
    <circle cx="12" cy="4" r="0.5"/>
    <circle cx="13" cy="12" r="0.5"/>
    <circle cx="3" cy="12" r="0.5"/>
  </g>
</svg>

