<svg width="32" height="32" viewBox="0 0 32 32" xmlns="http://www.w3.org/2000/svg">
  <!-- Pokeball top half (red) -->
  <path d="M 16 2 A 14 14 0 0 1 30 16 L 2 16 A 14 14 0 0 1 16 2 Z" fill="#e74c3c" stroke="#c0392b" stroke-width="0.5"/>
  
  <!-- Pokeball bottom half (white) -->
  <path d="M 16 30 A 14 14 0 0 1 2 16 L 30 16 A 14 14 0 0 1 16 30 Z" fill="#ffffff" stroke="#bdc3c7" stroke-width="0.5"/>
  
  <!-- Center black band -->
  <rect x="2" y="14" width="28" height="4" fill="#2c3e50"/>
  
  <!-- Center button -->
  <circle cx="16" cy="16" r="4" fill="#ecf0f1" stroke="#2c3e50" stroke-width="0.5"/>
  <circle cx="16" cy="16" r="2.5" fill="#34495e"/>
  
  <!-- Minimal shine effect -->
  <ellipse cx="12" cy="9" rx="2" ry="3" fill="#ffffff" opacity="0.4" transform="rotate(-20 12 9)"/>
  
  <!-- Key sparkles for shiny effect -->
  <g fill="#f1c40f" opacity="0.9">
    <polygon points="8,6 9,8 10,6 9,4" transform="rotate(15 9 6)"/>
    <polygon points="23,7 24,9 25,7 24,5" transform="rotate(-20 24 7)"/>
    <polygon points="26,20 27,22 28,20 27,18" transform="rotate(30 27 20)"/>
    <polygon points="5,24 6,26 7,24 6,22" transform="rotate(-15 6 24)"/>
  </g>
  
  <!-- Small accent sparkles -->
  <g fill="#e67e22" opacity="0.8">
    <circle cx="7" cy="12" r="0.8"/>
    <circle cx="25" cy="11" r="0.8"/>
    <circle cx="27" cy="25" r="0.8"/>
    <circle cx="5" cy="20" r="0.8"/>
  </g>
</svg>

